
<svg height="1187pt" viewBox="0.00 0.00 520.64 1187.00" width="521pt" xmlns="http://www.w3.org/2000/svg" xmlns:xlink="http://www.w3.org/1999/xlink">
<g class="graph" id="graph0" transform="scale(1 1) rotate(0) translate(4 1183)">
<title>G</title>
<polygon fill="white" points="-4,4 -4,-1183 516.641,-1183 516.641,4 -4,4" stroke="none"/>
<!-- 4364684032 -->
<g class="node" id="node1"><title>4364684032</title>
<polygon fill="none" points="158.514,-1134.5 158.514,-1178.5 459.628,-1178.5 459.628,-1134.5 158.514,-1134.5" stroke="black"/>
<text font-family="Times,serif" font-size="14.00" text-anchor="middle" x="225.412" y="-1152.3">input_1 (InputLayer)</text>
<polyline fill="none" points="292.311,-1134.5 292.311,-1178.5 " stroke="black"/>
<text font-family="Times,serif" font-size="14.00" text-anchor="middle" x="320.145" y="-1163.3">input:</text>
<polyline fill="none" points="292.311,-1156.5 347.979,-1156.5 " stroke="black"/>
<text font-family="Times,serif" font-size="14.00" text-anchor="middle" x="320.145" y="-1141.3">output:</text>
<polyline fill="none" points="347.979,-1134.5 347.979,-1178.5 " stroke="black"/>
<text font-family="Times,serif" font-size="14.00" text-anchor="middle" x="403.804" y="-1163.3">(None, 3, 32, 32)</text>
<polyline fill="none" points="347.979,-1156.5 459.628,-1156.5 " stroke="black"/>
<text font-family="Times,serif" font-size="14.00" text-anchor="middle" x="403.804" y="-1141.3">(None, 3, 32, 32)</text>
</g>
<!-- 4364683136 -->
<g class="node" id="node2"><title>4364683136</title>
<polygon fill="none" points="116.5,-1053.5 116.5,-1097.5 501.642,-1097.5 501.642,-1053.5 116.5,-1053.5" stroke="black"/>
<text font-family="Times,serif" font-size="14.00" text-anchor="middle" x="221.912" y="-1071.3">convolution2d_6 (Convolution2D)</text>
<polyline fill="none" points="327.324,-1053.5 327.324,-1097.5 " stroke="black"/>
<text font-family="Times,serif" font-size="14.00" text-anchor="middle" x="355.159" y="-1082.3">input:</text>
<polyline fill="none" points="327.324,-1075.5 382.993,-1075.5 " stroke="black"/>
<text font-family="Times,serif" font-size="14.00" text-anchor="middle" x="355.159" y="-1060.3">output:</text>
<polyline fill="none" points="382.993,-1053.5 382.993,-1097.5 " stroke="black"/>
<text font-family="Times,serif" font-size="14.00" text-anchor="middle" x="442.317" y="-1082.3">(None, 3, 32, 32)</text>
<polyline fill="none" points="382.993,-1075.5 501.642,-1075.5 " stroke="black"/>
<text font-family="Times,serif" font-size="14.00" text-anchor="middle" x="442.317" y="-1060.3">(None, 10, 32, 32)</text>
</g>
<!-- 4364684032&#45;&gt;4364683136 -->
<g class="edge" id="edge1"><title>4364684032-&gt;4364683136</title>
<path d="M309.071,-1134.33C309.071,-1126.18 309.071,-1116.7 309.071,-1107.8" fill="none" stroke="black"/>
<polygon fill="black" points="312.571,-1107.73 309.071,-1097.73 305.571,-1107.73 312.571,-1107.73" stroke="black"/>
</g>
<!-- 4662762408 -->
<g class="node" id="node3"><title>4662762408</title>
<polygon fill="none" points="6.5,-972.5 6.5,-1016.5 391.642,-1016.5 391.642,-972.5 6.5,-972.5" stroke="black"/>
<text font-family="Times,serif" font-size="14.00" text-anchor="middle" x="111.912" y="-990.3">convolution2d_7 (Convolution2D)</text>
<polyline fill="none" points="217.324,-972.5 217.324,-1016.5 " stroke="black"/>
<text font-family="Times,serif" font-size="14.00" text-anchor="middle" x="245.159" y="-1001.3">input:</text>
<polyline fill="none" points="217.324,-994.5 272.993,-994.5 " stroke="black"/>
<text font-family="Times,serif" font-size="14.00" text-anchor="middle" x="245.159" y="-979.3">output:</text>
<polyline fill="none" points="272.993,-972.5 272.993,-1016.5 " stroke="black"/>
<text font-family="Times,serif" font-size="14.00" text-anchor="middle" x="332.317" y="-1001.3">(None, 10, 32, 32)</text>
<polyline fill="none" points="272.993,-994.5 391.642,-994.5 " stroke="black"/>
<text font-family="Times,serif" font-size="14.00" text-anchor="middle" x="332.317" y="-979.3">(None, 10, 32, 32)</text>
</g>
<!-- 4364683136&#45;&gt;4662762408 -->
<g class="edge" id="edge2"><title>4364683136-&gt;4662762408</title>
<path d="M279.593,-1053.33C266.523,-1043.94 250.982,-1032.78 237.056,-1022.78" fill="none" stroke="black"/>
<polygon fill="black" points="238.794,-1019.72 228.63,-1016.73 234.711,-1025.41 238.794,-1019.72" stroke="black"/>
</g>
<!-- 4662877152 -->
<g class="node" id="node5"><title>4662877152</title>
<polygon fill="none" points="105.501,-810.5 105.501,-854.5 512.641,-854.5 512.641,-810.5 105.501,-810.5" stroke="black"/>
<text font-family="Times,serif" font-size="14.00" text-anchor="middle" x="162.426" y="-828.3">merge_1 (Merge)</text>
<polyline fill="none" points="219.351,-810.5 219.351,-854.5 " stroke="black"/>
<text font-family="Times,serif" font-size="14.00" text-anchor="middle" x="247.185" y="-839.3">input:</text>
<polyline fill="none" points="219.351,-832.5 275.02,-832.5 " stroke="black"/>
<text font-family="Times,serif" font-size="14.00" text-anchor="middle" x="247.185" y="-817.3">output:</text>
<polyline fill="none" points="275.02,-810.5 275.02,-854.5 " stroke="black"/>
<text font-family="Times,serif" font-size="14.00" text-anchor="middle" x="393.83" y="-839.3">[(None, 10, 32, 32), (None, 10, 32, 32)]</text>
<polyline fill="none" points="275.02,-832.5 512.641,-832.5 " stroke="black"/>
<text font-family="Times,serif" font-size="14.00" text-anchor="middle" x="393.344" y="-817.3">(None, 10, 32, 32)</text>
</g>
<!-- 4364683136&#45;&gt;4662877152 -->
<g class="edge" id="edge4"><title>4364683136-&gt;4662877152</title>
<path d="M362.173,-1053.45C377.491,-1044.6 392.397,-1032.65 401.071,-1017 428.218,-968.02 428.218,-939.98 401.071,-891 394.023,-878.284 382.861,-868.009 370.708,-859.859" fill="none" stroke="black"/>
<polygon fill="black" points="372.514,-856.86 362.173,-854.552 368.817,-862.804 372.514,-856.86" stroke="black"/>
</g>
<!-- 4662835912 -->
<g class="node" id="node4"><title>4662835912</title>
<polygon fill="none" points="6.5,-891.5 6.5,-935.5 391.642,-935.5 391.642,-891.5 6.5,-891.5" stroke="black"/>
<text font-family="Times,serif" font-size="14.00" text-anchor="middle" x="111.912" y="-909.3">convolution2d_8 (Convolution2D)</text>
<polyline fill="none" points="217.324,-891.5 217.324,-935.5 " stroke="black"/>
<text font-family="Times,serif" font-size="14.00" text-anchor="middle" x="245.159" y="-920.3">input:</text>
<polyline fill="none" points="217.324,-913.5 272.993,-913.5 " stroke="black"/>
<text font-family="Times,serif" font-size="14.00" text-anchor="middle" x="245.159" y="-898.3">output:</text>
<polyline fill="none" points="272.993,-891.5 272.993,-935.5 " stroke="black"/>
<text font-family="Times,serif" font-size="14.00" text-anchor="middle" x="332.317" y="-920.3">(None, 10, 32, 32)</text>
<polyline fill="none" points="272.993,-913.5 391.642,-913.5 " stroke="black"/>
<text font-family="Times,serif" font-size="14.00" text-anchor="middle" x="332.317" y="-898.3">(None, 10, 32, 32)</text>
</g>
<!-- 4662762408&#45;&gt;4662835912 -->
<g class="edge" id="edge3"><title>4662762408-&gt;4662835912</title>
<path d="M199.071,-972.329C199.071,-964.183 199.071,-954.699 199.071,-945.797" fill="none" stroke="black"/>
<polygon fill="black" points="202.571,-945.729 199.071,-935.729 195.571,-945.729 202.571,-945.729" stroke="black"/>
</g>
<!-- 4662835912&#45;&gt;4662877152 -->
<g class="edge" id="edge5"><title>4662835912-&gt;4662877152</title>
<path d="M228.549,-891.329C241.619,-881.943 257.159,-870.782 271.086,-860.78" fill="none" stroke="black"/>
<polygon fill="black" points="273.431,-863.405 279.511,-854.729 269.347,-857.72 273.431,-863.405" stroke="black"/>
</g>
<!-- 4662878104 -->
<g class="node" id="node6"><title>4662878104</title>
<polygon fill="none" points="143.352,-729.5 143.352,-773.5 474.79,-773.5 474.79,-729.5 143.352,-729.5" stroke="black"/>
<text font-family="Times,serif" font-size="14.00" text-anchor="middle" x="221.912" y="-747.3">activation_1 (Activation)</text>
<polyline fill="none" points="300.473,-729.5 300.473,-773.5 " stroke="black"/>
<text font-family="Times,serif" font-size="14.00" text-anchor="middle" x="328.307" y="-758.3">input:</text>
<polyline fill="none" points="300.473,-751.5 356.142,-751.5 " stroke="black"/>
<text font-family="Times,serif" font-size="14.00" text-anchor="middle" x="328.307" y="-736.3">output:</text>
<polyline fill="none" points="356.142,-729.5 356.142,-773.5 " stroke="black"/>
<text font-family="Times,serif" font-size="14.00" text-anchor="middle" x="415.466" y="-758.3">(None, 10, 32, 32)</text>
<polyline fill="none" points="356.142,-751.5 474.79,-751.5 " stroke="black"/>
<text font-family="Times,serif" font-size="14.00" text-anchor="middle" x="415.466" y="-736.3">(None, 10, 32, 32)</text>
</g>
<!-- 4662877152&#45;&gt;4662878104 -->
<g class="edge" id="edge6"><title>4662877152-&gt;4662878104</title>
<path d="M309.071,-810.329C309.071,-802.183 309.071,-792.699 309.071,-783.797" fill="none" stroke="black"/>
<polygon fill="black" points="312.571,-783.729 309.071,-773.729 305.571,-783.729 312.571,-783.729" stroke="black"/>
</g>
<!-- 4662856336 -->
<g class="node" id="node7"><title>4662856336</title>
<polygon fill="none" points="116.89,-648.5 116.89,-692.5 501.252,-692.5 501.252,-648.5 116.89,-648.5" stroke="black"/>
<text font-family="Times,serif" font-size="14.00" text-anchor="middle" x="221.912" y="-666.3">maxpooling2d_3 (MaxPooling2D)</text>
<polyline fill="none" points="326.935,-648.5 326.935,-692.5 " stroke="black"/>
<text font-family="Times,serif" font-size="14.00" text-anchor="middle" x="354.769" y="-677.3">input:</text>
<polyline fill="none" points="326.935,-670.5 382.604,-670.5 " stroke="black"/>
<text font-family="Times,serif" font-size="14.00" text-anchor="middle" x="354.769" y="-655.3">output:</text>
<polyline fill="none" points="382.604,-648.5 382.604,-692.5 " stroke="black"/>
<text font-family="Times,serif" font-size="14.00" text-anchor="middle" x="441.928" y="-677.3">(None, 10, 32, 32)</text>
<polyline fill="none" points="382.604,-670.5 501.252,-670.5 " stroke="black"/>
<text font-family="Times,serif" font-size="14.00" text-anchor="middle" x="441.928" y="-655.3">(None, 10, 16, 16)</text>
</g>
<!-- 4662878104&#45;&gt;4662856336 -->
<g class="edge" id="edge7"><title>4662878104-&gt;4662856336</title>
<path d="M309.071,-729.329C309.071,-721.183 309.071,-711.699 309.071,-702.797" fill="none" stroke="black"/>
<polygon fill="black" points="312.571,-702.729 309.071,-692.729 305.571,-702.729 312.571,-702.729" stroke="black"/>
</g>
<!-- 4662856840 -->
<g class="node" id="node8"><title>4662856840</title>
<polygon fill="none" points="4.5,-567.5 4.5,-611.5 389.642,-611.5 389.642,-567.5 4.5,-567.5" stroke="black"/>
<text font-family="Times,serif" font-size="14.00" text-anchor="middle" x="109.912" y="-585.3">convolution2d_9 (Convolution2D)</text>
<polyline fill="none" points="215.324,-567.5 215.324,-611.5 " stroke="black"/>
<text font-family="Times,serif" font-size="14.00" text-anchor="middle" x="243.159" y="-596.3">input:</text>
<polyline fill="none" points="215.324,-589.5 270.993,-589.5 " stroke="black"/>
<text font-family="Times,serif" font-size="14.00" text-anchor="middle" x="243.159" y="-574.3">output:</text>
<polyline fill="none" points="270.993,-567.5 270.993,-611.5 " stroke="black"/>
<text font-family="Times,serif" font-size="14.00" text-anchor="middle" x="330.317" y="-596.3">(None, 10, 16, 16)</text>
<polyline fill="none" points="270.993,-589.5 389.642,-589.5 " stroke="black"/>
<text font-family="Times,serif" font-size="14.00" text-anchor="middle" x="330.317" y="-574.3">(None, 10, 16, 16)</text>
</g>
<!-- 4662856336&#45;&gt;4662856840 -->
<g class="edge" id="edge8"><title>4662856336-&gt;4662856840</title>
<path d="M279.057,-648.329C265.624,-638.854 249.627,-627.571 235.346,-617.498" fill="none" stroke="black"/>
<polygon fill="black" points="237.357,-614.633 227.168,-611.729 233.322,-620.353 237.357,-614.633" stroke="black"/>
</g>
<!-- 4664077504 -->
<g class="node" id="node10"><title>4664077504</title>
<polygon fill="none" points="104.501,-405.5 104.501,-449.5 511.641,-449.5 511.641,-405.5 104.501,-405.5" stroke="black"/>
<text font-family="Times,serif" font-size="14.00" text-anchor="middle" x="161.426" y="-423.3">merge_2 (Merge)</text>
<polyline fill="none" points="218.351,-405.5 218.351,-449.5 " stroke="black"/>
<text font-family="Times,serif" font-size="14.00" text-anchor="middle" x="246.185" y="-434.3">input:</text>
<polyline fill="none" points="218.351,-427.5 274.02,-427.5 " stroke="black"/>
<text font-family="Times,serif" font-size="14.00" text-anchor="middle" x="246.185" y="-412.3">output:</text>
<polyline fill="none" points="274.02,-405.5 274.02,-449.5 " stroke="black"/>
<text font-family="Times,serif" font-size="14.00" text-anchor="middle" x="392.83" y="-434.3">[(None, 10, 16, 16), (None, 10, 16, 16)]</text>
<polyline fill="none" points="274.02,-427.5 511.641,-427.5 " stroke="black"/>
<text font-family="Times,serif" font-size="14.00" text-anchor="middle" x="392.344" y="-412.3">(None, 10, 16, 16)</text>
</g>
<!-- 4662856336&#45;&gt;4664077504 -->
<g class="edge" id="edge10"><title>4662856336-&gt;4664077504</title>
<path d="M360.348,-648.363C375.485,-639.467 390.327,-627.505 399.071,-612 426.582,-563.216 428.34,-534.92 401.071,-486 394.012,-473.337 382.887,-463.111 370.751,-454.996" fill="none" stroke="black"/>
<polygon fill="black" points="372.569,-452.005 362.225,-449.712 368.881,-457.955 372.569,-452.005" stroke="black"/>
</g>
<!-- 4662965528 -->
<g class="node" id="node9"><title>4662965528</title>
<polygon fill="none" points="0,-486.5 0,-530.5 392.142,-530.5 392.142,-486.5 0,-486.5" stroke="black"/>
<text font-family="Times,serif" font-size="14.00" text-anchor="middle" x="108.912" y="-504.3">convolution2d_10 (Convolution2D)</text>
<polyline fill="none" points="217.824,-486.5 217.824,-530.5 " stroke="black"/>
<text font-family="Times,serif" font-size="14.00" text-anchor="middle" x="245.659" y="-515.3">input:</text>
<polyline fill="none" points="217.824,-508.5 273.493,-508.5 " stroke="black"/>
<text font-family="Times,serif" font-size="14.00" text-anchor="middle" x="245.659" y="-493.3">output:</text>
<polyline fill="none" points="273.493,-486.5 273.493,-530.5 " stroke="black"/>
<text font-family="Times,serif" font-size="14.00" text-anchor="middle" x="332.817" y="-515.3">(None, 10, 16, 16)</text>
<polyline fill="none" points="273.493,-508.5 392.142,-508.5 " stroke="black"/>
<text font-family="Times,serif" font-size="14.00" text-anchor="middle" x="332.817" y="-493.3">(None, 10, 16, 16)</text>
</g>
<!-- 4662856840&#45;&gt;4662965528 -->
<g class="edge" id="edge9"><title>4662856840-&gt;4662965528</title>
<path d="M196.803,-567.329C196.7,-559.183 196.58,-549.699 196.467,-540.797" fill="none" stroke="black"/>
<polygon fill="black" points="199.966,-540.684 196.34,-530.729 192.966,-540.773 199.966,-540.684" stroke="black"/>
</g>
<!-- 4662965528&#45;&gt;4664077504 -->
<g class="edge" id="edge11"><title>4662965528-&gt;4664077504</title>
<path d="M226.085,-486.329C239.518,-476.854 255.514,-465.571 269.796,-455.498" fill="none" stroke="black"/>
<polygon fill="black" points="271.82,-458.353 277.974,-449.729 267.785,-452.633 271.82,-458.353" stroke="black"/>
</g>
<!-- 4664077560 -->
<g class="node" id="node11"><title>4664077560</title>
<polygon fill="none" points="142.352,-324.5 142.352,-368.5 473.79,-368.5 473.79,-324.5 142.352,-324.5" stroke="black"/>
<text font-family="Times,serif" font-size="14.00" text-anchor="middle" x="220.912" y="-342.3">activation_2 (Activation)</text>
<polyline fill="none" points="299.473,-324.5 299.473,-368.5 " stroke="black"/>
<text font-family="Times,serif" font-size="14.00" text-anchor="middle" x="327.307" y="-353.3">input:</text>
<polyline fill="none" points="299.473,-346.5 355.142,-346.5 " stroke="black"/>
<text font-family="Times,serif" font-size="14.00" text-anchor="middle" x="327.307" y="-331.3">output:</text>
<polyline fill="none" points="355.142,-324.5 355.142,-368.5 " stroke="black"/>
<text font-family="Times,serif" font-size="14.00" text-anchor="middle" x="414.466" y="-353.3">(None, 10, 16, 16)</text>
<polyline fill="none" points="355.142,-346.5 473.79,-346.5 " stroke="black"/>
<text font-family="Times,serif" font-size="14.00" text-anchor="middle" x="414.466" y="-331.3">(None, 10, 16, 16)</text>
</g>
<!-- 4664077504&#45;&gt;4664077560 -->
<g class="edge" id="edge12"><title>4664077504-&gt;4664077560</title>
<path d="M308.071,-405.329C308.071,-397.183 308.071,-387.699 308.071,-378.797" fill="none" stroke="black"/>
<polygon fill="black" points="311.571,-378.729 308.071,-368.729 304.571,-378.729 311.571,-378.729" stroke="black"/>
</g>
<!-- 4664093496 -->
<g class="node" id="node12"><title>4664093496</title>
<polygon fill="none" points="115.89,-243.5 115.89,-287.5 500.252,-287.5 500.252,-243.5 115.89,-243.5" stroke="black"/>
<text font-family="Times,serif" font-size="14.00" text-anchor="middle" x="220.912" y="-261.3">maxpooling2d_4 (MaxPooling2D)</text>
<polyline fill="none" points="325.935,-243.5 325.935,-287.5 " stroke="black"/>
<text font-family="Times,serif" font-size="14.00" text-anchor="middle" x="353.769" y="-272.3">input:</text>
<polyline fill="none" points="325.935,-265.5 381.604,-265.5 " stroke="black"/>
<text font-family="Times,serif" font-size="14.00" text-anchor="middle" x="353.769" y="-250.3">output:</text>
<polyline fill="none" points="381.604,-243.5 381.604,-287.5 " stroke="black"/>
<text font-family="Times,serif" font-size="14.00" text-anchor="middle" x="440.928" y="-272.3">(None, 10, 16, 16)</text>
<polyline fill="none" points="381.604,-265.5 500.252,-265.5 " stroke="black"/>
<text font-family="Times,serif" font-size="14.00" text-anchor="middle" x="440.928" y="-250.3">(None, 10, 8, 8)</text>
</g>
<!-- 4664077560&#45;&gt;4664093496 -->
<g class="edge" id="edge13"><title>4664077560-&gt;4664093496</title>
<path d="M308.071,-324.329C308.071,-316.183 308.071,-306.699 308.071,-297.797" fill="none" stroke="black"/>
<polygon fill="black" points="311.571,-297.729 308.071,-287.729 304.571,-297.729 311.571,-297.729" stroke="black"/>
</g>
<!-- 4662762352 -->
<g class="node" id="node13"><title>4662762352</title>
<polygon fill="none" points="169.562,-162.5 169.562,-206.5 446.58,-206.5 446.58,-162.5 169.562,-162.5" stroke="black"/>
<text font-family="Times,serif" font-size="14.00" text-anchor="middle" x="227.912" y="-180.3">flatten_2 (Flatten)</text>
<polyline fill="none" points="286.262,-162.5 286.262,-206.5 " stroke="black"/>
<text font-family="Times,serif" font-size="14.00" text-anchor="middle" x="314.097" y="-191.3">input:</text>
<polyline fill="none" points="286.262,-184.5 341.931,-184.5 " stroke="black"/>
<text font-family="Times,serif" font-size="14.00" text-anchor="middle" x="314.097" y="-169.3">output:</text>
<polyline fill="none" points="341.931,-162.5 341.931,-206.5 " stroke="black"/>
<text font-family="Times,serif" font-size="14.00" text-anchor="middle" x="394.255" y="-191.3">(None, 10, 8, 8)</text>
<polyline fill="none" points="341.931,-184.5 446.58,-184.5 " stroke="black"/>
<text font-family="Times,serif" font-size="14.00" text-anchor="middle" x="394.255" y="-169.3">(None, 640)</text>
</g>
<!-- 4664093496&#45;&gt;4662762352 -->
<g class="edge" id="edge14"><title>4664093496-&gt;4662762352</title>
<path d="M308.071,-243.329C308.071,-235.183 308.071,-225.699 308.071,-216.797" fill="none" stroke="black"/>
<polygon fill="black" points="311.571,-216.729 308.071,-206.729 304.571,-216.729 311.571,-216.729" stroke="black"/>
</g>
<!-- 4664094056 -->
<g class="node" id="node14"><title>4664094056</title>
<polygon fill="none" points="183.569,-81.5 183.569,-125.5 432.573,-125.5 432.573,-81.5 183.569,-81.5" stroke="black"/>
<text font-family="Times,serif" font-size="14.00" text-anchor="middle" x="238.412" y="-99.3">dense_3 (Dense)</text>
<polyline fill="none" points="293.255,-81.5 293.255,-125.5 " stroke="black"/>
<text font-family="Times,serif" font-size="14.00" text-anchor="middle" x="321.09" y="-110.3">input:</text>
<polyline fill="none" points="293.255,-103.5 348.924,-103.5 " stroke="black"/>
<text font-family="Times,serif" font-size="14.00" text-anchor="middle" x="321.09" y="-88.3">output:</text>
<polyline fill="none" points="348.924,-81.5 348.924,-125.5 " stroke="black"/>
<text font-family="Times,serif" font-size="14.00" text-anchor="middle" x="390.749" y="-110.3">(None, 640)</text>
<polyline fill="none" points="348.924,-103.5 432.573,-103.5 " stroke="black"/>
<text font-family="Times,serif" font-size="14.00" text-anchor="middle" x="390.749" y="-88.3">(None, 512)</text>
</g>
<!-- 4662762352&#45;&gt;4664094056 -->
<g class="edge" id="edge15"><title>4662762352-&gt;4664094056</title>
<path d="M308.071,-162.329C308.071,-154.183 308.071,-144.699 308.071,-135.797" fill="none" stroke="black"/>
<polygon fill="black" points="311.571,-135.729 308.071,-125.729 304.571,-135.729 311.571,-135.729" stroke="black"/>
</g>
<!-- 4664126040 -->
<g class="node" id="node15"><title>4664126040</title>
<polygon fill="none" points="183.569,-0.5 183.569,-44.5 432.573,-44.5 432.573,-0.5 183.569,-0.5" stroke="black"/>
<text font-family="Times,serif" font-size="14.00" text-anchor="middle" x="238.412" y="-18.3">dense_4 (Dense)</text>
<polyline fill="none" points="293.255,-0.5 293.255,-44.5 " stroke="black"/>
<text font-family="Times,serif" font-size="14.00" text-anchor="middle" x="321.09" y="-29.3">input:</text>
<polyline fill="none" points="293.255,-22.5 348.924,-22.5 " stroke="black"/>
<text font-family="Times,serif" font-size="14.00" text-anchor="middle" x="321.09" y="-7.3">output:</text>
<polyline fill="none" points="348.924,-0.5 348.924,-44.5 " stroke="black"/>
<text font-family="Times,serif" font-size="14.00" text-anchor="middle" x="390.749" y="-29.3">(None, 512)</text>
<polyline fill="none" points="348.924,-22.5 432.573,-22.5 " stroke="black"/>
<text font-family="Times,serif" font-size="14.00" text-anchor="middle" x="390.749" y="-7.3">(None, 10)</text>
</g>
<!-- 4664094056&#45;&gt;4664126040 -->
<g class="edge" id="edge16"><title>4664094056-&gt;4664126040</title>
<path d="M308.071,-81.3294C308.071,-73.1826 308.071,-63.6991 308.071,-54.7971" fill="none" stroke="black"/>
<polygon fill="black" points="311.571,-54.729 308.071,-44.729 304.571,-54.729 311.571,-54.729" stroke="black"/>
</g>
</g>
</svg>